<?xml version="1.0" standalone="no"?>
<!DOCTYPE svg PUBLIC "-//W3C//DTD SVG 20010904//EN"
 "http://www.w3.org/TR/2001/REC-SVG-20010904/DTD/svg10.dtd">
<svg version="1.0" xmlns="http://www.w3.org/2000/svg"
 width="1600.000000pt" height="1600.000000pt" viewBox="0 0 1600.000000 1600.000000"
 preserveAspectRatio="xMidYMid meet">

<g transform="translate(0.000000,1600.000000) scale(0.100000,-0.100000)"
fill="#000000" stroke="none">
<path d="M0 8000 l0 -8000 8000 0 8000 0 0 8000 0 8000 -8000 0 -8000 0 0
-8000z m9763 3108 c-36 -68 -68 -127 -73 -133 -4 -5 -24 -41 -45 -80 -209
-385 -739 -1268 -1030 -1715 -23 -36 -96 -148 -162 -250 -66 -102 -195 -299
-287 -438 l-168 -253 -181 275 c-291 441 -319 485 -312 496 4 6 1 9 -5 8 -17
-4 -366 543 -364 569 1 7 -2 10 -7 8 -11 -8 -30 30 -24 48 3 7 -2 20 -12 28
-16 13 -17 12 -4 -4 8 -9 11 -20 8 -23 -3 -3 -13 9 -23 28 -9 18 -39 67 -67
108 -27 41 -54 84 -59 95 -9 21 -20 39 -56 96 -13 23 -21 47 -18 65 2 16 1 21
-1 12 -7 -27 -16 -22 -40 22 -26 44 -27 50 -13 50 6 0 10 -9 10 -19 0 -11 5
-23 10 -26 14 -8 2 44 -14 64 -9 11 -8 13 4 9 8 -2 20 -19 26 -36 11 -36 27
-32 18 4 -5 18 -2 22 13 19 40 -9 93 -12 93 -6 0 3 -9 21 -21 40 -16 27 -18
36 -8 42 15 9 30 -8 22 -27 -2 -7 3 -24 12 -37 12 -20 13 -26 3 -29 -11 -4
-10 -8 1 -21 7 -10 19 -17 25 -17 6 0 5 4 -3 9 -8 5 -11 16 -7 26 4 11 0 25
-10 37 -10 10 -15 20 -12 23 9 9 86 -98 81 -112 -3 -7 -10 -10 -15 -7 -6 4 -5
-3 1 -15 7 -12 10 -25 7 -30 -7 -11 26 -10 40 0 15 12 38 -16 28 -32 -4 -7 -3
-9 3 -6 14 9 37 -19 27 -34 -4 -7 -3 -9 3 -6 12 8 56 -50 48 -63 -3 -5 -1 -18
5 -27 9 -16 10 -15 5 5 -4 12 -4 22 -2 22 5 0 256 -346 343 -471 21 -31 92
-132 157 -225 65 -93 153 -222 195 -286 42 -64 82 -117 88 -117 5 -1 68 85
140 190 71 105 173 252 226 327 53 76 120 171 149 212 46 66 229 322 311 435
96 133 481 647 532 711 23 28 53 66 67 85 64 82 222 283 239 302 10 12 50 61
90 110 40 48 74 87 75 87 2 0 -26 -55 -62 -122z m301 -870 c128 -260 246 -500
261 -533 15 -33 59 -125 97 -205 63 -130 219 -465 285 -610 14 -30 40 -88 59
-128 19 -41 34 -75 34 -77 0 -2 15 -36 34 -77 52 -113 96 -216 96 -223 0 -17
-1320 73 -1339 91 -2 2 9 4 25 4 16 0 106 7 199 15 191 17 530 42 708 52 64 3
117 10 117 15 0 5 -59 116 -132 246 -72 130 -158 287 -191 347 -189 350 -288
535 -397 745 -67 129 -124 236 -125 238 -2 2 -13 -13 -25 -33 -12 -19 -27 -32
-32 -29 -6 4 -8 2 -4 -4 8 -13 -103 -187 -454 -712 -148 -221 -234 -348 -459
-677 -185 -272 -526 -748 -723 -1011 l-100 -133 -107 143 c-251 339 -417 571
-584 813 -31 44 -84 121 -118 170 -34 50 -100 146 -147 214 -47 68 -86 134
-87 145 -1 12 -7 21 -12 21 -17 0 -55 54 -47 66 4 7 3 10 -2 6 -12 -7 -100
123 -96 142 2 7 -1 10 -6 7 -5 -3 -28 23 -51 58 -35 55 -40 68 -31 90 5 14 7
26 5 26 -14 0 -19 -7 -17 -22 2 -10 1 -18 -1 -18 -5 0 -206 301 -228 340 -7
14 -12 31 -10 39 1 7 -2 10 -8 7 -5 -3 -19 8 -31 26 -22 33 -22 33 0 9 16 -19
23 -22 33 -12 9 9 9 14 -3 21 -12 7 -11 9 6 8 17 -2 20 -8 19 -46 -1 -25 4
-49 12 -57 7 -8 17 -24 22 -37 l10 -23 0 26 c1 14 -4 30 -11 37 -7 7 -9 12 -4
12 25 0 50 -63 28 -72 -5 -1 -1 -16 9 -32 l17 -29 -5 54 c-4 49 -3 55 18 64
31 14 37 61 9 68 -33 8 -25 37 10 37 17 0 30 -4 30 -10 0 -20 15 -9 28 20 8
17 19 30 25 30 8 0 7 -4 -1 -12 -20 -20 -13 -32 8 -13 15 14 17 21 9 31 -6 8
-16 11 -21 8 -6 -4 -14 0 -19 7 -15 24 -10 34 7 13 15 -18 15 -18 9 11 -5 27
-3 26 20 -13 22 -35 24 -46 15 -58 -11 -12 -9 -14 9 -12 17 2 28 -8 49 -47 15
-27 32 -54 38 -60 29 -27 93 -146 88 -162 -4 -13 -3 -14 3 -5 7 9 51 -55 150
-215 191 -311 480 -794 603 -1008 12 -22 55 -96 95 -165 39 -69 113 -200 165
-292 51 -92 96 -166 100 -163 4 2 35 55 70 117 128 229 167 298 303 533 138
237 537 907 582 975 12 19 68 109 124 200 55 91 122 199 148 240 26 41 79 125
116 185 38 61 79 126 92 145 12 19 78 121 145 225 67 105 148 229 179 277 31
48 60 88 64 88 4 0 113 -213 241 -472z m-3545 377 c0 -5 -4 -3 -9 5 -5 8 -9
22 -9 30 0 16 17 -16 18 -35z m-261 -40 c-3 -3 -9 2 -12 12 -6 14 -5 15 5 6 7
-7 10 -15 7 -18z m439 -20 c0 -8 -4 -15 -9 -15 -10 0 -11 14 -1 23 9 10 10 9
10 -8z m-381 -58 c14 -30 14 -31 -1 -12 -25 30 -39 59 -26 51 6 -4 18 -22 27
-39z m442 -10 c8 -10 6 -13 -7 -13 -11 0 -17 6 -14 13 3 7 6 13 8 13 1 0 7 -6
13 -13z m-154 -13 c3 -8 2 -12 -4 -9 -6 3 -10 10 -10 16 0 14 7 11 14 -7z
m-234 -68 c0 -6 -7 -1 -16 10 -15 19 -16 19 -9 -1 3 -11 2 -16 -2 -11 -4 4 -8
19 -8 32 l-1 25 18 -23 c10 -13 18 -27 18 -32z m269 4 c0 -9 -4 -8 -9 5 -5 11
-9 27 -9 35 0 9 4 8 9 -5 5 -11 9 -27 9 -35z m105 16 c14 -23 14 -25 -2 -23
-11 0 -17 9 -17 24 0 28 -1 28 19 -1z m89 -38 c28 -38 34 -54 17 -43 -5 3 -10
1 -10 -4 0 -6 5 -11 12 -11 6 0 8 -3 5 -6 -4 -4 -14 -1 -22 6 -13 11 -13 15
-3 22 10 6 9 12 -6 23 -11 8 -17 15 -13 15 4 0 0 12 -10 28 -21 34 -5 19 30
-30z m-49 26 c5 -14 4 -15 -9 -4 -17 14 -19 20 -6 20 5 0 12 -7 15 -16z m-103
-64 c5 0 9 -5 9 -11 0 -8 -5 -8 -15 1 -8 7 -14 20 -14 29 1 13 2 13 6 -1 2
-10 9 -18 14 -18z m-253 -35 c-3 -3 -9 2 -12 12 -6 14 -5 15 5 6 7 -7 10 -15
7 -18z m286 7 c3 -5 -1 -9 -9 -9 -8 0 -12 4 -9 9 3 4 7 8 9 8 2 0 6 -4 9 -8z
m188 -42 c-3 -8 -1 -12 3 -7 5 4 17 0 27 -9 17 -16 17 -18 -4 -35 -27 -24 -42
-24 -30 -1 11 20 5 45 -9 37 -5 -4 -6 1 -3 9 3 8 0 25 -7 38 -12 23 -12 23 8
3 11 -11 18 -27 15 -35z m-443 -14 c-3 -3 -11 5 -18 17 -13 21 -12 21 5 5 10
-10 16 -20 13 -22z m301 -57 c10 -23 15 -27 22 -17 6 9 7 6 3 -9 -3 -12 -1
-24 5 -28 5 -3 10 -11 10 -18 0 -12 -12 3 -49 66 -12 20 -18 37 -13 37 5 0 15
-14 22 -31z m18 6 c-3 -3 -9 2 -12 12 -6 14 -5 15 5 6 7 -7 10 -15 7 -18z
m115 -35 c3 -11 1 -20 -4 -20 -5 0 -9 9 -9 20 0 11 2 20 4 20 2 0 6 -9 9 -20z
m-381 -5 c3 0 9 -3 13 -7 4 -3 0 -5 -9 -4 -9 1 -22 8 -29 16 -10 10 -9 11 3 4
8 -5 18 -9 22 -9z m-329 -30 c-3 -9 -8 -14 -10 -11 -3 3 -2 9 2 15 9 16 15 13
8 -4z m383 -41 c25 -33 42 -110 21 -97 -5 3 -6 16 -2 30 4 16 2 22 -5 18 -5
-3 -10 -3 -11 2 -3 31 -10 48 -23 55 -9 5 -16 13 -16 18 0 17 8 11 36 -26z
m-54 -16 c-10 -10 -10 -8 -2 37 1 6 4 2 7 -9 3 -10 0 -23 -5 -28z m-206 -23
c-5 14 -4 17 4 9 6 -6 8 -18 4 -27 -5 -15 -8 -14 -26 6 -18 20 -19 20 -13 2 5
-15 3 -17 -6 -8 -21 21 1 36 24 16 20 -17 20 -17 13 2z m-163 -20 c-3 -9 -8
-14 -10 -11 -3 3 -2 9 2 15 9 16 15 13 8 -4z m945 -22 c-10 -12 -13 -12 -20 1
-13 23 0 40 18 25 11 -9 12 -15 2 -26z m-991 -25 c-3 -7 -5 -2 -5 12 0 14 2
19 5 13 2 -7 2 -19 0 -25z m527 16 c5 -14 4 -15 -9 -4 -17 14 -19 20 -6 20 5
0 12 -7 15 -16z m-264 -88 c0 -4 7 -5 16 -2 14 5 15 4 4 -9 -11 -13 -16 -10
-39 23 -41 56 -46 71 -12 32 17 -19 31 -39 31 -44z m-9 57 c13 -16 12 -17 -3
-4 -10 7 -18 15 -18 17 0 8 8 3 21 -13z m38 -13 c-6 -16 -15 -27 -21 -24 -6 4
-6 9 -1 13 5 3 12 14 16 24 11 30 16 18 6 -13z m-293 -22 c-9 -12 -16 -19 -16
-15 0 11 24 47 28 42 2 -2 -3 -14 -12 -27z m-33 -63 c-3 -9 -8 -14 -10 -11 -3
3 -2 9 2 15 9 16 15 13 8 -4z m336 -29 c-3 -3 -11 5 -18 17 -13 21 -12 21 5 5
10 -10 16 -20 13 -22z m-366 -31 c-3 -9 -8 -14 -10 -11 -3 3 -2 9 2 15 9 16
15 13 8 -4z m491 -31 c3 -9 3 -20 0 -25 -8 -14 -26 1 -20 18 3 8 1 11 -4 8 -6
-3 -10 -1 -10 4 0 17 27 13 34 -5z m-825 -68 c-9 -8 -10 -7 -5 7 3 10 7 24 7
30 1 7 3 4 6 -7 3 -10 -1 -23 -8 -30z m259 9 c-3 -3 -9 2 -12 12 -6 14 -5 15
5 6 7 -7 10 -15 7 -18z m592 15 c0 -5 -4 -10 -10 -10 -5 0 -10 5 -10 10 0 6 5
10 10 10 6 0 10 -4 10 -10z m-587 -55 c-15 -24 -29 -43 -30 -41 -5 5 41 86 49
86 4 0 -5 -20 -19 -45z m-18 25 c3 -5 1 -10 -4 -10 -6 0 -11 5 -11 10 0 6 2
10 4 10 3 0 8 -4 11 -10z m-274 -47 c-12 -20 -14 -14 -5 12 4 9 9 14 11 11 3
-2 0 -13 -6 -23z m-44 -95 c-3 -8 -6 -5 -6 6 -1 11 2 17 5 13 3 -3 4 -12 1
-19z m246 5 c-3 -7 -6 -13 -8 -13 -2 0 -5 6 -8 13 -3 8 1 14 8 14 7 0 11 -6 8
-14z m-7 -57 c-5 -27 -24 -66 -32 -66 -2 0 0 9 6 20 6 10 9 23 9 27 -2 9 11
43 17 43 3 0 2 -11 0 -24z m-278 -21 c-6 -14 -13 -23 -15 -21 -5 5 15 46 22
46 3 0 -1 -11 -7 -25z m-37 -89 c-11 -25 -22 -46 -25 -46 -3 0 -1 10 4 23 6
12 15 35 21 50 6 15 13 26 16 23 3 -2 -4 -25 -16 -50z m249 30 c0 -3 -4 -8
-10 -11 -5 -3 -10 -1 -10 4 0 6 5 11 10 11 6 0 10 -2 10 -4z m18 -27 c-7 -12
-20 -35 -30 -53 l-16 -31 1 27 c1 16 5 28 10 28 4 0 7 7 7 16 0 8 4 13 9 10 5
-3 11 1 15 9 3 8 8 15 11 15 3 0 0 -10 -7 -21z m-240 -54 c-3 -3 -9 2 -12 12
-6 14 -5 15 5 6 7 -7 10 -15 7 -18z m139 -57 c-3 -8 -6 -5 -6 6 -1 11 2 17 5
13 3 -3 4 -12 1 -19z m-226 -15 c-12 -20 -14 -14 -5 12 4 9 9 14 11 11 3 -2 0
-13 -6 -23z m249 -14 c-18 -28 -20 -29 -15 -9 8 27 25 53 32 46 2 -2 -6 -19
-17 -37z m-37 -17 c-3 -12 -9 -22 -14 -22 -5 0 -3 11 3 25 13 30 20 28 11 -3z
m-232 -19 c-12 -20 -14 -14 -5 12 4 9 9 14 11 11 3 -2 0 -13 -6 -23z m-40 -76
c-10 -9 -11 -8 -5 6 3 10 9 15 12 12 3 -3 0 -11 -7 -18z m224 -47 c-14 -27
-27 -50 -30 -50 -5 0 25 69 38 88 20 26 16 10 -8 -38z m-28 18 c-3 -8 -6 -5
-6 6 -1 11 2 17 5 13 3 -3 4 -12 1 -19z m-216 -15 c-12 -20 -14 -14 -5 12 4 9
9 14 11 11 3 -2 0 -13 -6 -23z m202 -18 c-7 -21 -12 -19 -10 4 0 11 5 18 9 15
4 -3 5 -11 1 -19z m-213 -14 c0 -5 -9 -19 -21 -32 l-20 -24 17 33 c19 33 24
38 24 23z m1 -44 c-10 -9 -11 -8 -5 6 3 10 9 15 12 12 3 -3 0 -11 -7 -18z
m205 -17 c-6 -8 -21 -32 -31 -52 l-20 -38 -17 33 c-22 40 -23 57 -2 31 15 -18
15 -18 9 11 -4 22 -3 26 5 15 5 -8 8 -28 5 -45 -5 -28 -4 -27 16 10 12 22 25
41 30 43 4 2 5 11 2 20 -4 14 -3 15 6 2 7 -10 6 -19 -3 -30z m-281 -95 c-13
-27 -25 -46 -25 -41 0 13 45 107 47 99 2 -5 -8 -30 -22 -58z m209 -21 c3 -8 2
-12 -4 -9 -6 3 -10 10 -10 16 0 14 7 11 14 -7z m-93 -46 c1 -7 0 -22 -1 -33
-2 -17 0 -17 15 -5 9 7 14 21 12 30 -3 12 3 16 24 16 27 0 28 0 12 -29 -10
-20 -18 -26 -22 -18 -5 8 -11 3 -19 -14 -17 -37 -42 -22 -42 26 0 21 5 39 10
39 6 0 11 -6 11 -12z m-170 -46 c-13 -25 -14 -35 -2 -28 5 4 7 -3 4 -15 -4
-14 -8 -17 -13 -9 -5 9 -10 6 -15 -9 -4 -13 -9 -21 -11 -18 -2 2 5 27 17 56
12 28 24 50 26 47 3 -2 0 -13 -6 -24z m190 -54 c-14 -22 -21 -27 -21 -15 0 16
31 57 39 51 2 -2 -6 -18 -18 -36z m-181 -60 c0 -10 -3 -9 -10 2 -9 13 -10 13
-10 -1 0 -19 -23 -69 -32 -69 -4 0 0 16 8 35 8 19 14 38 13 42 -1 5 -1 14 0
21 1 18 31 -11 31 -30z m-64 -24 c-9 -13 -14 -30 -10 -36 4 -6 3 -8 -3 -5 -6
4 -13 -3 -16 -15 -4 -12 -1 -25 4 -29 8 -5 8 -9 0 -13 -6 -4 -11 -1 -11 6 -1
18 -29 -33 -30 -53 0 -9 -8 -27 -19 -40 -25 -34 -16 -49 30 -49 21 0 39 -5 39
-11 0 -7 14 -8 40 -4 26 4 40 3 40 -4 0 -13 -14 -13 -97 -5 -76 8 -94 30 -63
73 11 16 20 34 20 39 0 19 85 193 88 182 2 -6 -3 -22 -12 -36z m167 -56 c-15
-27 -30 -48 -35 -48 -5 0 -8 -7 -6 -17 2 -12 17 -17 68 -19 36 -2 108 -7 160
-11 52 -4 102 -6 110 -5 8 1 132 -7 275 -18 367 -27 417 -32 413 -36 -15 -15
-1094 -88 -1209 -81 -57 3 -54 3 23 5 89 2 138 15 138 37 0 8 -15 13 -40 13
-53 1 -75 15 -35 22 23 4 31 11 33 30 6 39 18 45 48 21 21 -16 39 -21 83 -19
l56 2 -55 5 c-54 5 -54 5 30 12 l85 6 -90 0 c-50 -1 -96 2 -102 6 -14 9 -10
84 5 99 9 9 12 8 12 -6 0 -9 5 -14 10 -11 6 3 8 18 5 33 -4 23 -4 24 4 7 8
-17 10 -18 10 -2 1 9 6 17 12 17 5 0 8 4 4 10 -3 5 -13 6 -21 3 -14 -5 -14 -3
-3 15 l14 22 11 -23 c11 -19 8 -29 -13 -69z m41 77 c-4 -8 -7 -15 -9 -15 -2 0
-5 7 -9 15 -3 9 0 15 9 15 9 0 12 -6 9 -15z m-155 -59 c-9 -8 -10 -7 -5 7 3
10 7 24 7 30 1 7 3 4 6 -7 3 -10 -1 -23 -8 -30z m33 -41 c-9 -19 -17 -33 -19
-31 -6 5 19 66 27 66 4 0 0 -16 -8 -35z m-125 -57 c-3 -8 -6 -5 -6 6 -1 11 2
17 5 13 3 -3 4 -12 1 -19z m-83 -130 c-4 -13 -7 -26 -6 -30 1 -5 -3 -8 -9 -8
-7 0 -8 7 -4 18 4 9 10 25 12 35 3 10 8 16 10 13 3 -2 1 -15 -3 -28z m2023
-1818 c45 -6 113 -22 150 -36 66 -25 99 -44 76 -44 -7 0 -15 5 -18 10 -3 6
-11 10 -17 10 -7 0 -6 -6 2 -15 10 -12 10 -15 -4 -15 -9 0 -16 -5 -16 -11 0
-5 -5 -7 -12 -3 -7 4 -8 3 -4 -5 6 -9 13 -9 29 2 30 19 70 28 85 18 10 -6 10
-10 -2 -21 -9 -7 -13 -16 -10 -21 8 -14 24 -11 22 4 -5 24 44 7 86 -31 69 -61
111 -114 111 -140 0 -14 7 -27 15 -29 13 -4 13 -3 0 6 -8 5 -11 13 -7 17 4 4
9 5 11 3 6 -7 76 -148 76 -154 0 -3 -21 -5 -48 -5 -44 0 -48 2 -62 33 -8 17
-15 45 -16 61 -2 26 -34 74 -34 49 0 -6 4 -13 9 -15 4 -1 12 -14 16 -27 5 -16
4 -21 -4 -17 -6 4 -11 12 -11 18 0 7 -9 22 -21 34 -17 18 -19 26 -9 43 6 12 7
21 3 20 -43 -7 -68 23 -38 45 16 12 16 13 -6 11 -15 -1 -38 10 -62 31 -20 19
-42 34 -48 34 -5 0 -7 4 -4 10 4 6 -1 7 -11 3 -12 -4 -15 -3 -10 5 4 7 13 12
21 12 8 0 16 4 19 9 4 5 -10 4 -29 -2 -43 -13 -44 -25 -5 -38 17 -6 30 -15 30
-20 0 -5 5 -9 10 -9 13 0 70 -51 70 -62 0 -5 -7 -2 -16 6 -25 25 -94 71 -152
100 -61 31 -151 52 -272 65 l-85 10 85 -4 c47 -2 112 -9 146 -15 51 -10 66 -9
95 4 29 14 30 15 7 11 -22 -4 -26 -2 -21 11 4 11 1 15 -13 13 -10 -2 -26 1
-34 6 -8 5 -46 11 -85 12 -38 2 -104 7 -145 12 l-75 8 75 2 c42 0 112 -4 157
-9z m2494 -13 c80 -23 198 -80 255 -123 65 -50 125 -115 117 -127 -3 -6 -1 -7
5 -3 25 15 118 -164 155 -299 31 -116 30 -335 -2 -455 -29 -109 -89 -233 -140
-290 -22 -25 -41 -48 -41 -52 0 -13 -144 -123 -178 -137 -18 -7 -32 -17 -32
-21 0 -4 97 -89 215 -190 118 -100 215 -184 215 -186 0 -2 -28 -4 -62 -4 l-63
0 -198 171 -199 171 -83 -17 c-227 -45 -451 2 -635 133 -119 84 -227 249 -272
417 -31 115 -31 356 0 467 53 193 153 338 304 441 67 46 205 103 279 116 78
14 293 6 360 -12z m-2743 6 c-10 -2 -26 -2 -35 0 -10 3 -2 5 17 5 19 0 27 -2
18 -5z m4384 -565 c3 -522 5 -578 22 -628 50 -152 130 -239 261 -284 76 -26
216 -32 295 -12 167 43 251 125 303 296 19 61 20 102 24 633 l4 567 45 0 44 0
0 -542 c-1 -605 -4 -649 -63 -771 -87 -184 -250 -277 -481 -277 -229 1 -391
90 -476 264 -68 138 -70 152 -70 774 l0 552 44 0 45 0 3 -572z m2138 -218 l0
-790 -45 0 -45 0 0 790 0 790 45 0 45 0 0 -790z m-6582 771 c11 -7 10 -9 -3
-14 -9 -4 -13 -3 -10 2 3 5 -5 12 -17 14 -20 4 -20 4 -3 5 11 1 26 -2 33 -7z
m119 3 c-3 -3 -12 -4 -19 -1 -8 3 -5 6 6 6 11 1 17 -2 13 -5z m43 -14 c-8 -5
-19 -10 -25 -10 -5 0 -3 5 5 10 8 5 20 10 25 10 6 0 3 -5 -5 -10z m163 3 c-7
-2 -19 -2 -25 0 -7 3 -2 5 12 5 14 0 19 -2 13 -5z m-266 -9 c-3 -3 -12 -4 -19
-1 -8 3 -5 6 6 6 11 1 17 -2 13 -5z m40 0 c-3 -3 -12 -4 -19 -1 -8 3 -5 6 6 6
11 1 17 -2 13 -5z m130 0 c-3 -3 -12 -4 -19 -1 -8 3 -5 6 6 6 11 1 17 -2 13
-5z m50 0 c-3 -3 -12 -4 -19 -1 -8 3 -5 6 6 6 11 1 17 -2 13 -5z m83 -4 c-8
-5 -22 -10 -30 -10 -13 0 -13 1 0 10 8 5 22 10 30 10 13 0 13 -1 0 -10z m-460
-10 c0 -5 -4 -10 -10 -10 -5 0 -10 5 -10 10 0 6 5 10 10 10 6 0 10 -4 10 -10z
m107 -6 c-3 -3 -12 -4 -19 -1 -8 3 -5 6 6 6 11 1 17 -2 13 -5z m103 -10 c0 -3
-12 -4 -27 -3 -16 1 -44 -1 -63 -5 -35 -6 -35 -5 4 7 35 12 86 12 86 1z m284
7 c4 -5 -3 -7 -14 -4 -23 6 -26 13 -6 13 8 0 17 -4 20 -9z m-549 -10 c-11 -5
-20 -14 -20 -21 0 -7 -7 -15 -15 -17 -13 -4 -13 -3 0 6 12 8 12 11 1 11 -11 0
-11 3 -1 15 7 8 22 15 34 14 20 0 20 -1 1 -8z m122 3 c-3 -3 -12 -4 -19 -1 -8
3 -5 6 6 6 11 1 17 -2 13 -5z m-51 -24 c0 -12 -4 -16 -9 -11 -5 5 -6 14 -3 20
10 15 12 14 12 -9z m44 0 c-8 -5 -19 -10 -25 -10 -5 0 -3 5 5 10 8 5 20 10 25
10 6 0 3 -5 -5 -10z m-215 -30 c-3 -5 -1 -10 6 -10 7 0 10 -3 6 -6 -9 -9 -28
6 -22 17 4 5 8 9 11 9 3 0 2 -4 -1 -10z m114 -13 c-16 -12 -79 -45 -79 -42 0
7 63 45 74 45 5 0 7 -1 5 -3z m-160 -28 c-13 -12 -22 -26 -21 -33 2 -6 0 -8
-4 -3 -4 4 -24 -7 -43 -25 -33 -30 -34 -30 -11 -4 36 42 83 85 94 86 5 0 -2
-9 -15 -21z m31 -59 c0 -5 -2 -10 -4 -10 -3 0 -8 5 -11 10 -3 6 -1 10 4 10 6
0 11 -4 11 -10z m-54 -58 c-17 -16 -18 -16 -5 5 7 12 15 20 18 17 3 -2 -3 -12
-13 -22z m-80 6 c4 -7 3 -8 -4 -4 -16 9 -15 -7 0 -22 8 -8 8 -12 1 -12 -13 0
-25 28 -17 41 7 12 11 11 20 -3z m1094 -8 c0 -5 -2 -10 -4 -10 -3 0 -8 5 -11
10 -3 6 -1 10 4 10 6 0 11 -4 11 -10z m-1136 -42 c-6 -19 -5 -21 8 -11 12 11
14 9 13 -7 -2 -27 -13 -36 -21 -16 -3 9 -10 13 -15 10 -13 -7 -11 3 3 26 17
26 21 25 12 -2z m82 -6 c-17 -16 -18 -16 -5 5 7 12 15 20 18 17 3 -2 -3 -12
-13 -22z m-26 -42 c-6 -11 -13 -20 -16 -20 -2 0 0 9 6 20 6 11 13 20 16 20 2
0 0 -9 -6 -20z m-80 -4 c0 -2 -8 -10 -17 -17 -16 -13 -17 -12 -4 4 13 16 21
21 21 13z m45 -56 c-4 -12 -9 -19 -12 -17 -3 3 -2 15 2 27 4 12 9 19 12 17 3
-3 2 -15 -2 -27z m-84 -11 c-5 -13 -10 -19 -10 -12 -1 15 10 45 15 40 3 -2 0
-15 -5 -28z m-25 -70 c-9 -19 -15 -29 -16 -22 0 15 22 64 27 60 2 -2 -3 -19
-11 -38z m-7 -84 c0 -5 -4 -3 -9 5 -5 8 -9 22 -9 30 0 16 17 -16 18 -35z m-22
-27 c-3 -7 -5 -2 -5 12 0 14 2 19 5 13 2 -7 2 -19 0 -25z m80 -10 c-3 -7 -5
-2 -5 12 0 14 2 19 5 13 2 -7 2 -19 0 -25z m-7 -158 c0 -77 -3 -140 -8 -140
-9 0 -14 201 -7 248 11 62 15 31 15 -108z m-83 78 c-3 -8 -6 -5 -6 6 -1 11 2
17 5 13 3 -3 4 -12 1 -19z m-10 -115 c-2 -16 -4 -3 -4 27 0 30 2 43 4 28 2
-16 2 -40 0 -55z m10 -65 c-3 -8 -6 -5 -6 6 -1 11 2 17 5 13 3 -3 4 -12 1 -19z
m76 -78 c3 0 7 6 10 13 2 6 3 3 1 -7 -2 -11 1 -25 5 -30 15 -19 42 -126 35
-138 -4 -6 -7 -24 -6 -40 0 -17 -3 -26 -10 -22 -10 6 -7 35 7 79 l7 20 -12
-20 c-7 -11 -20 -26 -29 -33 -10 -8 -12 -15 -5 -20 6 -4 17 -22 25 -39 11 -27
15 -30 21 -15 3 9 7 31 7 49 1 39 17 51 25 20 3 -13 17 -40 30 -60 14 -20 23
-43 20 -50 -2 -7 2 -21 10 -32 14 -18 15 -18 16 -2 0 9 -4 17 -10 17 -5 0 -10
4 -10 10 0 5 29 -19 63 -54 74 -73 154 -123 253 -157 61 -21 86 -24 214 -24
122 1 156 4 219 24 170 53 309 175 379 334 10 24 17 27 62 27 l50 0 -11 -27
c-47 -124 -163 -262 -276 -329 -213 -127 -491 -149 -718 -56 -27 11 -49 25
-48 31 2 6 -5 7 -14 4 -12 -5 -14 -3 -8 7 5 9 4 11 -3 6 -18 -11 -112 55 -178
126 -79 85 -131 179 -130 235 1 23 -2 39 -7 36 -5 -3 -6 -16 -3 -29 4 -13 4
-24 2 -24 -9 0 -46 132 -40 141 12 20 26 8 21 -20 -7 -33 2 -73 14 -65 5 2 6
19 4 37 l-5 32 10 -33 c6 -18 15 -30 20 -27 13 8 13 65 -1 65 -5 0 -8 4 -5 9
3 4 -3 16 -14 26 -11 10 -20 23 -20 29 0 6 7 3 14 -6 7 -10 16 -18 19 -18z
m-53 -1 c0 -5 -4 -9 -10 -9 -5 0 -10 7 -10 16 0 8 5 12 10 9 6 -3 10 -10 10
-16z m-1113 -482 c-1 -67 -3 -9 -3 128 0 138 2 192 3 122 2 -71 2 -183 0 -250z
m70 -9 c-2 -13 -4 -3 -4 22 0 25 2 35 4 23 2 -13 2 -33 0 -45z m3 -98 c0 -5
-8 -10 -17 -10 -15 0 -16 2 -3 10 19 12 20 12 20 0z"/>
<path d="M7022 10100 c7 -11 18 -22 26 -25 8 -3 6 4 -5 20 -21 29 -38 34 -21
5z"/>
<path d="M6960 10101 c0 -6 4 -13 10 -16 6 -3 7 1 4 9 -7 18 -14 21 -14 7z"/>
<path d="M6900 9980 c6 -11 17 -20 25 -20 7 0 15 -5 17 -12 3 -7 7 -5 11 6 4
10 3 15 -3 11 -6 -3 -10 -1 -10 5 0 6 -4 8 -10 5 -5 -3 -10 -2 -10 3 0 6 -7
12 -15 16 -13 4 -14 2 -5 -14z"/>
<path d="M7170 9880 c0 -5 5 -10 11 -10 5 0 7 5 4 10 -3 6 -8 10 -11 10 -2 0
-4 -4 -4 -10z"/>
<path d="M6990 9829 c0 -5 5 -7 10 -4 6 3 10 8 10 11 0 2 -4 4 -10 4 -5 0 -10
-5 -10 -11z"/>
<path d="M7018 9821 c-15 -17 -14 -21 9 -47 24 -28 24 -28 8 -2 -13 21 -14 31
-5 47 13 26 9 27 -12 2z"/>
<path d="M7230 9811 c0 -5 5 -13 10 -16 6 -3 10 -2 10 4 0 5 -4 13 -10 16 -5
3 -10 2 -10 -4z"/>
<path d="M7063 9745 c-3 -9 -3 -18 -1 -21 3 -3 8 4 11 16 6 23 -1 27 -10 5z"/>
<path d="M7283 9708 c1 -15 6 -23 11 -18 4 4 4 16 -2 26 -9 16 -10 14 -9 -8z"/>
<path d="M6746 9766 c4 -16 2 -26 -5 -26 -6 0 -11 -5 -11 -11 0 -14 18 -2 29
19 6 12 4 21 -5 30 -13 12 -14 10 -8 -12z"/>
<path d="M6780 9715 c7 -9 15 -13 17 -11 7 7 -7 26 -19 26 -6 0 -6 -6 2 -15z"/>
<path d="M6750 9701 c0 -5 7 -12 16 -15 24 -9 27 -7 10 9 -17 17 -26 19 -26 6z"/>
<path d="M6800 9682 c0 -5 7 -9 15 -9 8 0 12 4 9 9 -3 4 -9 8 -15 8 -5 0 -9
-4 -9 -8z"/>
<path d="M6839 9632 c6 -12 16 -24 22 -28 8 -4 8 -1 0 14 -6 12 -16 24 -22 28
-8 4 -8 1 0 -14z"/>
<path d="M6810 9621 c0 -5 7 -11 14 -14 10 -4 13 -1 9 9 -6 15 -23 19 -23 5z"/>
<path d="M6576 9588 c3 -5 10 -6 15 -3 13 9 11 12 -6 12 -8 0 -12 -4 -9 -9z"/>
<path d="M6609 9581 c-15 -17 -15 -20 3 -42 17 -22 18 -22 9 -2 -15 30 -14 38
4 23 10 -9 15 -9 15 -1 0 6 -5 11 -11 11 -6 0 -9 7 -5 15 7 20 4 19 -15 -4z"/>
<path d="M6881 9543 c-1 -17 16 -25 25 -12 4 7 3 9 -4 5 -5 -3 -13 0 -15 6 -4
9 -6 10 -6 1z"/>
<path d="M6666 9477 c3 -10 9 -15 12 -12 3 3 0 11 -7 18 -10 9 -11 8 -5 -6z"/>
<path d="M6966 9373 c-6 -14 -5 -15 5 -6 7 7 10 15 7 18 -3 3 -9 -2 -12 -12z"/>
<path d="M6776 9297 c3 -10 9 -15 12 -12 3 3 0 11 -7 18 -10 9 -11 8 -5 -6z"/>
<path d="M6840 9196 c0 -2 8 -10 18 -17 15 -13 16 -12 3 4 -13 16 -21 21 -21
13z"/>
<path d="M7140 9143 c0 -6 8 -17 18 -24 16 -13 16 -13 2 6 -8 11 -16 22 -17
24 -2 2 -3 0 -3 -6z"/>
<path d="M6915 10250 c3 -5 8 -10 11 -10 2 0 4 5 4 10 0 6 -5 10 -11 10 -5 0
-7 -4 -4 -10z"/>
<path d="M5480 8854 c0 -8 5 -12 10 -9 6 3 10 10 10 16 0 5 -4 9 -10 9 -5 0
-10 -7 -10 -16z"/>
<path d="M5330 8600 c0 -5 5 -10 10 -10 6 0 10 5 10 10 0 6 -4 10 -10 10 -5 0
-10 -4 -10 -10z"/>
<path d="M5575 8512 l30 -5 -25 -8 c-21 -7 -19 -8 9 -4 18 3 47 5 64 5 51 0
26 7 -43 12 -36 3 -51 3 -35 0z"/>
<path d="M5290 8500 c0 -5 5 -10 10 -10 6 0 10 5 10 10 0 6 -4 10 -10 10 -5 0
-10 -4 -10 -10z"/>
<path d="M5738 8463 c7 -3 16 -2 19 1 4 3 -2 6 -13 5 -11 0 -14 -3 -6 -6z"/>
<path d="M5608 8453 c18 -2 45 -2 60 0 15 2 0 4 -33 4 -33 0 -45 -2 -27 -4z"/>
<path d="M5528 8443 c6 -2 18 -2 25 0 6 3 1 5 -13 5 -14 0 -19 -2 -12 -5z"/>
<path d="M5738 8443 c7 -3 16 -2 19 1 4 3 -2 6 -13 5 -11 0 -14 -3 -6 -6z"/>
<path d="M5853 8443 c9 -2 23 -2 30 0 6 3 -1 5 -18 5 -16 0 -22 -2 -12 -5z"/>
<path d="M5570 8429 c-23 -5 -10 -5 35 -2 39 3 72 7 74 9 7 7 -72 2 -109 -7z"/>
<path d="M5378 8423 c12 -2 32 -2 45 0 12 2 2 4 -23 4 -25 0 -35 -2 -22 -4z"/>
<path d="M7048 6593 c7 -3 16 -2 19 1 4 3 -2 6 -13 5 -11 0 -14 -3 -6 -6z"/>
<path d="M7245 6520 c-17 -7 -15 -9 13 -9 17 -1 32 4 32 9 0 12 -17 12 -45 0z"/>
<path d="M7410 6453 c0 -6 9 -18 20 -28 19 -17 20 -17 20 1 1 19 1 19 15 0 16
-21 21 -10 6 13 -5 7 -14 10 -20 6 -7 -4 -18 -1 -26 5 -8 7 -15 8 -15 3z"/>
<path d="M7533 6343 c-3 -10 -8 -21 -10 -25 -2 -4 2 -5 9 -3 8 3 14 14 14 25
0 25 -5 25 -13 3z"/>
<path d="M7555 6300 c3 -5 8 -10 11 -10 2 0 4 5 4 10 0 6 -5 10 -11 10 -5 0
-7 -4 -4 -10z"/>
<path d="M7576 6255 c4 -8 8 -15 10 -15 2 0 4 7 4 15 0 8 -4 15 -10 15 -5 0
-7 -7 -4 -15z"/>
<path d="M7620 6205 c0 -8 2 -15 4 -15 2 0 6 7 10 15 3 8 1 15 -4 15 -6 0 -10
-7 -10 -15z"/>
<path d="M7656 6177 c3 -10 9 -15 12 -12 3 3 0 11 -7 18 -10 9 -11 8 -5 -6z"/>
<path d="M9260 6523 c-29 -5 -107 -33 -167 -60 -153 -70 -283 -236 -335 -431
-26 -99 -29 -310 -5 -422 53 -248 256 -456 492 -505 81 -17 219 -19 294 -5
191 36 363 167 449 341 63 130 77 198 77 379 -1 133 -4 165 -24 230 -25 82
-76 188 -113 235 -85 110 -247 212 -372 234 -57 11 -244 13 -296 4z"/>
<path d="M6332 5518 c-7 -7 -12 -21 -12 -32 1 -18 3 -17 16 7 17 31 15 44 -4
25z"/>
<path d="M6381 5430 c1 -24 15 -55 21 -44 2 5 -1 20 -8 34 -8 14 -13 18 -13
10z"/>
<path d="M6373 5354 c0 -23 1 -24 9 -10 7 12 7 21 0 28 -6 6 -9 0 -9 -18z"/>
<path d="M6400 5361 c-13 -26 -13 -34 1 -25 9 5 10 -1 5 -22 -5 -21 -4 -25 4
-14 9 13 11 13 20 0 14 -22 12 -30 -6 -23 -12 4 -10 -2 7 -21 14 -16 29 -24
40 -21 10 3 20 1 24 -5 3 -5 16 -15 28 -20 21 -10 21 -10 3 4 -10 8 -15 19
-11 25 3 7 0 8 -9 5 -9 -3 -16 -2 -16 4 0 6 4 12 9 14 5 2 3 8 -4 15 -10 10
-16 9 -26 -3 -10 -12 -9 -13 7 -8 18 7 18 6 1 -12 -15 -16 -19 -17 -27 -4 -5
8 -6 18 -4 22 3 5 -4 23 -15 42 -23 36 -27 51 -11 41 6 -3 7 1 4 9 -8 21 -11
20 -24 -3z"/>
<path d="M7544 5268 l-19 -23 23 19 c21 18 27 26 19 26 -2 0 -12 -10 -23 -22z"/>
<path d="M6510 5196 c0 -2 8 -10 18 -17 15 -13 16 -12 3 4 -13 16 -21 21 -21
13z"/>
<path d="M6635 5150 c3 -5 8 -10 11 -10 2 0 4 5 4 10 0 6 -5 10 -11 10 -5 0
-7 -4 -4 -10z"/>
<path d="M6698 5123 c7 -3 16 -2 19 1 4 3 -2 6 -13 5 -11 0 -14 -3 -6 -6z"/>
<path d="M6678 5103 c7 -3 16 -2 19 1 4 3 -2 6 -13 5 -11 0 -14 -3 -6 -6z"/>
</g>
</svg>
